<svg width="357" height="111" viewBox="0 0 357 111" fill="none" xmlns="http://www.w3.org/2000/svg">
<g clip-path="url(#clip0_3_9696)">
<path d="M337 20H347V91H337V101H20V91H10V20H20V10H337V20Z" fill="#FA7036"/>
<rect x="20" width="317" height="10" fill="#111111"/>
<rect x="20" y="101" width="317" height="10" fill="#111111"/>
<rect x="347" y="91" width="71" height="10" transform="rotate(-90 347 91)" fill="#111111"/>
<rect width="71" height="10" transform="matrix(5.01702e-07 -1 -1 -3.80841e-09 10 91)" fill="#111111"/>
<rect width="10" height="10" transform="matrix(-1 0 0 1 20 10)" fill="#111111"/>
<rect width="10" height="10" transform="matrix(-1 0 0 1 347 10)" fill="#111111"/>
<rect x="30" y="20" width="297" height="10" fill="#F0C446"/>
<rect width="10" height="10" transform="matrix(-1 0 0 1 30 30)" fill="#F0C446"/>
<rect width="10" height="10" transform="matrix(-1 0 0 1 337 30)" fill="#F0C446"/>
<rect x="20" y="101" width="10" height="10" transform="rotate(180 20 101)" fill="#111111"/>
<rect x="347" y="101" width="10" height="10" transform="rotate(180 347 101)" fill="#111111"/>
<rect x="20" y="91" width="317" height="10" fill="#CE4D2A"/>
<rect x="20" y="91" width="10" height="10" transform="rotate(180 20 91)" fill="#CE4D2A"/>
<rect x="347" y="91" width="10" height="10" transform="rotate(180 347 91)" fill="#CE4D2A"/>
<path d="M122.935 68V50.569H115.47V45.5926H135.389V50.569H127.924V68H122.935ZM137.891 68V50.569H142.867V68H137.891ZM137.891 48.0808V43.1043H142.867V48.0808H137.891ZM157.81 58.0471V55.5589H150.332V58.0471H157.81ZM147.844 68V65.5118H145.355V53.0573H147.844V50.569H160.298V53.0573H162.786V60.5353H150.332V63.0235H160.298V68H147.844ZM147.844 48.0808V45.5926H150.332V43.1043H157.81V45.5926H160.298V48.0808H155.308V45.5926H152.82V48.0808H147.844ZM157.81 43.1043V40.6027H160.298V38.1145H165.275V40.6027H162.786V43.1043H157.81ZM177.743 63.0235V55.5589H170.264V63.0235H177.743ZM165.288 72.9765V50.569H180.231V53.0573H182.719V65.5118H180.231V68H172.753V65.5118H170.264V72.9765H165.288ZM197.662 68V65.5118H195.173V55.5589H192.685V50.569H195.173V45.5926H200.15V50.569H205.14V55.5589H200.15V63.0235H205.14V68H197.662ZM215.106 72.9765V68H210.13V65.5118H207.641V50.569H212.618V63.0235H217.594V60.5353H220.096V50.569H225.072V68H220.096V65.5118H217.594V68H220.096V72.9765H215.106ZM230.062 68V65.5118H227.574V53.0573H230.062V50.569H242.517V55.5589H232.55V63.0235H240.028V60.5353H245.005V65.5118H242.517V68H230.062Z" fill="white"/>
</g>
<defs>
<clipPath id="clip0_3_9696">
<rect width="357" height="111" fill="white"/>
</clipPath>
</defs>
</svg>
